<svg viewBox="0 0 600 560" xmlns="http://www.w3.org/2000/svg" role="img">
<title>Illustration of a connected office network with a server rack, devices, and a security camera</title>
<defs>
  <linearGradient id="rackGrad" x1="0" y1="0" x2="0" y2="1">
    <stop offset="0" stop-color="#222730"/>
    <stop offset="1" stop-color="#16181d"/>
  </linearGradient>
</defs>

<circle cx="300" cy="290" r="250" fill="#11182a"/>
<circle cx="300" cy="290" r="250" fill="none" stroke="#2a3a5c" stroke-width="1.5" stroke-dasharray="2 8"/>

<g stroke="#3b82f6" stroke-width="2" opacity="0.45" fill="none">
  <path d="M300 290 L150 150"/>
  <path d="M300 290 L450 150"/>
  <path d="M300 290 L470 360"/>
  <path d="M300 290 L130 380"/>
  <path d="M300 290 L300 460"/>
</g>

<g transform="translate(228,170)">
  <rect x="0" y="0" width="144" height="220" rx="10" fill="url(#rackGrad)"/>
  <rect x="0" y="0" width="144" height="220" rx="10" fill="none" stroke="#30343a" stroke-width="1.5"/>
  <g fill="#2b2f37">
    <rect x="14" y="18" width="116" height="26" rx="4"/>
    <rect x="14" y="54" width="116" height="26" rx="4"/>
    <rect x="14" y="90" width="116" height="26" rx="4"/>
    <rect x="14" y="126" width="116" height="26" rx="4"/>
    <rect x="14" y="162" width="116" height="26" rx="4"/>
  </g>
  <circle cx="26" cy="31" r="3.5" fill="#5fb8a3"/>
  <circle cx="26" cy="67" r="3.5" fill="#5fb8a3"/>
  <circle cx="26" cy="103" r="3.5" fill="#f4bf4f"/>
  <circle cx="26" cy="139" r="3.5" fill="#5fb8a3"/>
  <circle cx="26" cy="175" r="3.5" fill="#5fb8a3"/>
  <rect x="40" y="24" width="78" height="6" rx="2" fill="#454b54"/>
  <rect x="40" y="60" width="60" height="6" rx="2" fill="#454b54"/>
  <rect x="40" y="96" width="68" height="6" rx="2" fill="#454b54"/>
  <rect x="40" y="132" width="50" height="6" rx="2" fill="#454b54"/>
  <rect x="40" y="168" width="72" height="6" rx="2" fill="#454b54"/>
</g>

<g transform="translate(115,110)">
  <rect x="0" y="0" width="76" height="56" rx="8" fill="#16203a" stroke="#2a3a5c" stroke-width="1.5"/>
  <rect x="10" y="12" width="56" height="32" rx="3" fill="#3b82f6"/>
  <path d="M24 28 L34 36 L52 18" stroke="#fafaf8" stroke-width="3" fill="none" stroke-linecap="round" stroke-linejoin="round"/>
  <circle cx="115" cy="86" r="5" fill="#3b82f6"/>
</g>

<g transform="translate(415,108)">
  <rect x="0" y="0" width="64" height="64" rx="32" fill="#16203a" stroke="#2a3a5c" stroke-width="1.5"/>
  <circle cx="32" cy="32" r="18" fill="none" stroke="#3b82f6" stroke-width="2.5"/>
  <circle cx="32" cy="32" r="6" fill="#3b82f6"/>
  <path d="M32 8 L32 2 M32 56 L32 62 M8 32 L2 32 M56 32 L62 32" stroke="#3b82f6" stroke-width="2" stroke-linecap="round"/>
</g>

<g transform="translate(420,330)">
  <rect x="0" y="0" width="86" height="58" rx="10" fill="#16181d"/>
  <path d="M62 18 L82 8 L82 50 L62 40 Z" fill="#30343a"/>
  <rect x="8" y="14" width="48" height="30" rx="4" fill="#1f1f1f"/>
  <circle cx="20" cy="29" r="3" fill="#ec6a5e"/>
  <text x="0" y="-10" class="t" fill="#9499a6" font-size="12" font-family="Manrope, sans-serif" font-weight="600">CCTV</text>
</g>

<g transform="translate(95,345)">
  <rect x="0" y="0" width="80" height="56" rx="8" fill="#16203a" stroke="#2a3a5c" stroke-width="1.5"/>
  <rect x="12" y="12" width="56" height="22" rx="3" fill="none" stroke="#3b82f6" stroke-width="2"/>
  <rect x="12" y="38" width="56" height="8" rx="2" fill="#e8efec"/>
  <rect x="20" y="40" width="24" height="4" rx="1" fill="#3b82f6"/>
</g>

<g transform="translate(255,430)">
  <rect x="0" y="0" width="90" height="64" rx="8" fill="#16203a" stroke="#2a3a5c" stroke-width="1.5"/>
  <path d="M14 44 L30 24 L44 36 L58 16 L76 32" stroke="#3b82f6" stroke-width="2.5" fill="none" stroke-linecap="round" stroke-linejoin="round"/>
  <circle cx="76" cy="32" r="3.5" fill="#3b82f6"/>
</g>

<g fill="#3b82f6">
  <circle cx="150" cy="150" r="5"/>
  <circle cx="450" cy="150" r="5"/>
  <circle cx="470" cy="360" r="5"/>
  <circle cx="130" cy="380" r="5"/>
  <circle cx="300" cy="460" r="5"/>
</g>
</svg>
